<svg xmlns="http://www.w3.org/2000/svg" xmlns:xlink="http://www.w3.org/1999/xlink" width="685" zoomAndPan="magnify" viewBox="0 0 513.75 154.499995" height="206" preserveAspectRatio="xMidYMid meet" version="1.0"><defs><g/><clipPath id="6ae4af931d"><path d="M 0.703125 0 L 512.796875 0 L 512.796875 154 L 0.703125 154 Z M 0.703125 0 " clip-rule="nonzero"/></clipPath><clipPath id="ab4cfed867"><rect x="0" width="485" y="0" height="51"/></clipPath></defs><g clip-path="url(#6ae4af931d)"><path fill="#ffffff" d="M 0.703125 0 L 512.796875 0 L 512.796875 154 L 0.703125 154 Z M 0.703125 0 " fill-opacity="1" fill-rule="nonzero"/></g><g fill="#1800ad" fill-opacity="1"><g transform="translate(14.653996, 74.64587)"><g><path d="M 38.984375 -15.71875 C 38.984375 -10.0625 37.375 -5.894531 34.15625 -3.21875 C 30.9375 -0.550781 26.300781 0.78125 20.25 0.78125 C 14.195312 0.78125 9.5625 -0.550781 6.34375 -3.21875 C 3.125 -5.894531 1.515625 -10.0625 1.515625 -15.71875 L 1.515625 -16.3125 L 15.125 -16.3125 L 15.125 -15.78125 C 15.125 -13.71875 15.503906 -12.25 16.265625 -11.375 C 17.035156 -10.5 18.210938 -10.0625 19.796875 -10.0625 C 21.367188 -10.0625 22.535156 -10.5 23.296875 -11.375 C 24.066406 -12.25 24.453125 -13.71875 24.453125 -15.78125 L 24.453125 -45.234375 L 38.984375 -45.234375 Z M 38.984375 -15.71875 "/></g></g></g><g fill="#1800ad" fill-opacity="1"><g transform="translate(56.79357, 74.64587)"><g><path d="M 35.171875 0 L 33.265625 -6.375 L 17.421875 -6.375 L 15.515625 0 L 0.65625 0 L 17.15625 -45.234375 L 34.0625 -45.234375 L 50.5625 0 Z M 20.453125 -16.5 L 30.25 -16.5 L 25.515625 -32.609375 L 25.25 -32.609375 Z M 20.453125 -16.5 "/></g></g></g><g fill="#1800ad" fill-opacity="1"><g transform="translate(107.939633, 74.64587)"><g><path d="M 23.875 -46.03125 C 29.65625 -46.03125 34.40625 -44.851562 38.125 -42.5 C 41.851562 -40.15625 43.765625 -36.6875 43.859375 -32.09375 L 43.859375 -31.296875 L 30.25 -31.296875 L 30.25 -31.5625 C 30.25 -32.875 29.765625 -33.96875 28.796875 -34.84375 C 27.835938 -35.71875 26.367188 -36.15625 24.390625 -36.15625 C 22.460938 -36.15625 20.984375 -35.867188 19.953125 -35.296875 C 18.921875 -34.734375 18.40625 -34.035156 18.40625 -33.203125 C 18.40625 -32.015625 19.109375 -31.132812 20.515625 -30.5625 C 21.921875 -30 24.175781 -29.410156 27.28125 -28.796875 C 30.925781 -28.054688 33.921875 -27.28125 36.265625 -26.46875 C 38.609375 -25.65625 40.65625 -24.328125 42.40625 -22.484375 C 44.15625 -20.640625 45.054688 -18.140625 45.109375 -14.984375 C 45.109375 -9.640625 43.296875 -5.675781 39.671875 -3.09375 C 36.054688 -0.507812 31.226562 0.78125 25.1875 0.78125 C 18.125 0.78125 12.628906 -0.398438 8.703125 -2.765625 C 4.785156 -5.128906 2.828125 -9.3125 2.828125 -15.3125 L 16.5625 -15.3125 C 16.5625 -13.039062 17.15625 -11.519531 18.34375 -10.75 C 19.53125 -9.976562 21.375 -9.59375 23.875 -9.59375 C 25.707031 -9.59375 27.226562 -9.789062 28.4375 -10.1875 C 29.644531 -10.582031 30.25 -11.394531 30.25 -12.625 C 30.25 -13.71875 29.578125 -14.535156 28.234375 -15.078125 C 26.898438 -15.628906 24.722656 -16.210938 21.703125 -16.828125 C 18.015625 -17.617188 14.960938 -18.441406 12.546875 -19.296875 C 10.140625 -20.148438 8.035156 -21.5625 6.234375 -23.53125 C 4.441406 -25.507812 3.546875 -28.1875 3.546875 -31.5625 C 3.546875 -36.507812 5.460938 -40.15625 9.296875 -42.5 C 13.140625 -44.851562 18 -46.03125 23.875 -46.03125 Z M 23.875 -46.03125 "/></g></g></g><g fill="#1800ad" fill-opacity="1"><g transform="translate(155.404224, 74.64587)"><g><path d="M 27.359375 -46.03125 C 35.160156 -46.03125 41.1875 -44.035156 45.4375 -40.046875 C 49.6875 -36.054688 51.8125 -30.25 51.8125 -22.625 C 51.8125 -14.988281 49.6875 -9.175781 45.4375 -5.1875 C 41.1875 -1.207031 35.160156 0.78125 27.359375 0.78125 C 19.554688 0.78125 13.535156 -1.195312 9.296875 -5.15625 C 5.066406 -9.125 2.953125 -14.945312 2.953125 -22.625 C 2.953125 -30.289062 5.066406 -36.109375 9.296875 -40.078125 C 13.535156 -44.046875 19.554688 -46.03125 27.359375 -46.03125 Z M 27.359375 -35.171875 C 24.242188 -35.171875 21.875 -34.226562 20.25 -32.34375 C 18.625 -30.457031 17.8125 -27.914062 17.8125 -24.71875 L 17.8125 -20.515625 C 17.8125 -17.316406 18.625 -14.773438 20.25 -12.890625 C 21.875 -11.003906 24.242188 -10.0625 27.359375 -10.0625 C 30.460938 -10.0625 32.835938 -11.003906 34.484375 -12.890625 C 36.128906 -14.773438 36.953125 -17.316406 36.953125 -20.515625 L 36.953125 -24.71875 C 36.953125 -27.914062 36.128906 -30.457031 34.484375 -32.34375 C 32.835938 -34.226562 30.460938 -35.171875 27.359375 -35.171875 Z M 27.359375 -35.171875 "/></g></g></g><g fill="#1800ad" fill-opacity="1"><g transform="translate(210.166008, 74.64587)"><g><path d="M 37.21875 0 L 18.21875 -21.953125 L 18.21875 0 L 4.859375 0 L 4.859375 -45.234375 L 17.5625 -45.234375 L 36.5625 -22.953125 L 36.5625 -45.234375 L 49.90625 -45.234375 L 49.90625 0 Z M 37.21875 0 "/></g></g></g><g fill="#1800ad" fill-opacity="1"><g transform="translate(264.927792, 74.64587)"><g/></g></g><g fill="#1800ad" fill-opacity="1"><g transform="translate(286.819369, 74.64587)"><g><path d="M 34.984375 -45.234375 C 37.253906 -45.234375 39.34375 -44.757812 41.25 -43.8125 C 43.164062 -42.875 44.679688 -41.550781 45.796875 -39.84375 C 46.910156 -38.132812 47.46875 -36.226562 47.46875 -34.125 C 47.46875 -28.5625 44.945312 -25.054688 39.90625 -23.609375 L 39.90625 -23.34375 C 45.644531 -22.03125 48.515625 -18.257812 48.515625 -12.03125 C 48.515625 -9.664062 47.929688 -7.570312 46.765625 -5.75 C 45.609375 -3.9375 44.019531 -2.523438 42 -1.515625 C 39.988281 -0.503906 37.78125 0 35.375 0 L 4.859375 0 L 4.859375 -45.234375 Z M 19.390625 -27.609375 L 29.390625 -27.609375 C 30.359375 -27.609375 31.160156 -27.945312 31.796875 -28.625 C 32.429688 -29.3125 32.75 -30.160156 32.75 -31.171875 L 32.75 -31.828125 C 32.75 -32.785156 32.414062 -33.601562 31.75 -34.28125 C 31.09375 -34.96875 30.304688 -35.3125 29.390625 -35.3125 L 19.390625 -35.3125 Z M 19.390625 -10.515625 L 30.4375 -10.515625 C 31.40625 -10.515625 32.207031 -10.851562 32.84375 -11.53125 C 33.476562 -12.21875 33.796875 -13.066406 33.796875 -14.078125 L 33.796875 -14.734375 C 33.796875 -15.734375 33.476562 -16.570312 32.84375 -17.25 C 32.207031 -17.9375 31.40625 -18.28125 30.4375 -18.28125 L 19.390625 -18.28125 Z M 19.390625 -10.515625 "/></g></g></g><g fill="#1800ad" fill-opacity="1"><g transform="translate(337.965421, 74.64587)"><g><path d="M 32.9375 0 L 18.40625 0 L 18.40625 -17.5625 L 0.453125 -45.234375 L 17.15625 -45.234375 L 25.84375 -30.171875 L 26.109375 -30.171875 L 34.78125 -45.234375 L 50.625 -45.234375 L 32.9375 -17.5625 Z M 32.9375 0 "/></g></g></g><g fill="#1800ad" fill-opacity="1"><g transform="translate(389.111473, 74.64587)"><g><path d="M 49.90625 -18.21875 C 49.90625 -12.03125 47.953125 -7.316406 44.046875 -4.078125 C 40.148438 -0.835938 34.609375 0.78125 27.421875 0.78125 C 20.234375 0.78125 14.675781 -0.835938 10.75 -4.078125 C 6.820312 -7.316406 4.859375 -12.03125 4.859375 -18.21875 L 4.859375 -45.234375 L 19.390625 -45.234375 L 19.390625 -18.40625 C 19.390625 -15.863281 20.066406 -13.835938 21.421875 -12.328125 C 22.785156 -10.816406 24.765625 -10.0625 27.359375 -10.0625 C 29.941406 -10.0625 31.921875 -10.828125 33.296875 -12.359375 C 34.679688 -13.890625 35.375 -15.90625 35.375 -18.40625 L 35.375 -45.234375 L 49.90625 -45.234375 Z M 49.90625 -18.21875 "/></g></g></g><g fill="#1800ad" fill-opacity="1"><g transform="translate(443.873257, 74.64587)"><g><path d="M 37.21875 0 L 18.21875 -21.953125 L 18.21875 0 L 4.859375 0 L 4.859375 -45.234375 L 17.5625 -45.234375 L 36.5625 -22.953125 L 36.5625 -45.234375 L 49.90625 -45.234375 L 49.90625 0 Z M 37.21875 0 "/></g></g></g><g transform="matrix(1, 0, 0, 1, 14, 90)"><g clip-path="url(#ab4cfed867)"><g fill="#000000" fill-opacity="1"><g transform="translate(0.694571, 40.439246)"><g><path d="M 3.46875 0 L 3.46875 -29.9375 L 13.90625 -29.9375 C 16.175781 -29.9375 18.066406 -29.539062 19.578125 -28.75 C 21.097656 -27.96875 22.234375 -26.882812 22.984375 -25.5 C 23.734375 -24.113281 24.109375 -22.523438 24.109375 -20.734375 C 24.109375 -18.921875 23.722656 -17.332031 22.953125 -15.96875 C 22.191406 -14.601562 21.054688 -13.539062 19.546875 -12.78125 C 18.035156 -12.03125 16.140625 -11.65625 13.859375 -11.65625 L 5.578125 -11.65625 L 5.578125 -15 L 13.765625 -15 C 15.304688 -15 16.554688 -15.226562 17.515625 -15.6875 C 18.484375 -16.15625 19.195312 -16.816406 19.65625 -17.671875 C 20.113281 -18.535156 20.34375 -19.554688 20.34375 -20.734375 C 20.34375 -21.921875 20.113281 -22.953125 19.65625 -23.828125 C 19.195312 -24.710938 18.476562 -25.394531 17.5 -25.875 C 16.53125 -26.363281 15.269531 -26.609375 13.71875 -26.609375 L 7.25 -26.609375 L 7.25 0 Z M 20.703125 0 L 13.484375 -13.484375 L 17.734375 -13.484375 L 25.09375 0 Z M 20.703125 0 "/></g></g></g><g fill="#000000" fill-opacity="1"><g transform="translate(27.069159, 40.439246)"><g><path d="M 7.25 -29.9375 L 7.25 0 L 3.46875 0 L 3.46875 -29.9375 Z M 7.25 -29.9375 "/></g></g></g><g fill="#000000" fill-opacity="1"><g transform="translate(37.79576, 40.439246)"><g><path d="M 15.765625 0.421875 C 13.097656 0.421875 10.753906 -0.207031 8.734375 -1.46875 C 6.722656 -2.738281 5.148438 -4.519531 4.015625 -6.8125 C 2.878906 -9.113281 2.3125 -11.828125 2.3125 -14.953125 C 2.3125 -18.097656 2.875 -20.816406 4 -23.109375 C 5.132812 -25.410156 6.703125 -27.191406 8.703125 -28.453125 C 10.710938 -29.722656 13.007812 -30.359375 15.59375 -30.359375 C 17.164062 -30.359375 18.640625 -30.117188 20.015625 -29.640625 C 21.398438 -29.160156 22.632812 -28.484375 23.71875 -27.609375 C 24.800781 -26.734375 25.703125 -25.691406 26.421875 -24.484375 C 27.148438 -23.273438 27.644531 -21.941406 27.90625 -20.484375 L 24.046875 -20.484375 C 23.753906 -21.453125 23.347656 -22.328125 22.828125 -23.109375 C 22.316406 -23.890625 21.703125 -24.554688 20.984375 -25.109375 C 20.265625 -25.671875 19.453125 -26.101562 18.546875 -26.40625 C 17.648438 -26.707031 16.664062 -26.859375 15.59375 -26.859375 C 13.78125 -26.859375 12.148438 -26.390625 10.703125 -25.453125 C 9.253906 -24.523438 8.109375 -23.175781 7.265625 -21.40625 C 6.421875 -19.632812 6 -17.484375 6 -14.953125 C 6 -12.441406 6.425781 -10.300781 7.28125 -8.53125 C 8.132812 -6.769531 9.289062 -5.421875 10.75 -4.484375 C 12.21875 -3.546875 13.890625 -3.078125 15.765625 -3.078125 C 17.453125 -3.078125 18.945312 -3.4375 20.25 -4.15625 C 21.550781 -4.882812 22.570312 -5.910156 23.3125 -7.234375 C 24.050781 -8.554688 24.421875 -10.113281 24.421875 -11.90625 L 25.578125 -11.71875 L 16.65625 -11.71875 L 16.65625 -15.03125 L 28.125 -15.03125 L 28.125 -11.765625 C 28.125 -9.316406 27.585938 -7.175781 26.515625 -5.34375 C 25.441406 -3.519531 23.976562 -2.101562 22.125 -1.09375 C 20.269531 -0.0820312 18.148438 0.421875 15.765625 0.421875 Z M 15.765625 0.421875 "/></g></g></g><g fill="#000000" fill-opacity="1"><g transform="translate(68.3485, 40.439246)"><g><path d="M 3.46875 0 L 3.46875 -29.9375 L 7.25 -29.9375 L 7.25 -16.96875 L 23 -16.96875 L 23 -29.9375 L 26.78125 -29.9375 L 26.78125 0 L 23 0 L 23 -13.640625 L 7.25 -13.640625 L 7.25 0 Z M 3.46875 0 "/></g></g></g><g fill="#000000" fill-opacity="1"><g transform="translate(98.599924, 40.439246)"><g><path d="M 1.75 -26.59375 L 1.75 -29.9375 L 24.484375 -29.9375 L 24.484375 -26.59375 L 15.03125 -26.59375 L 15.03125 0 L 11.25 0 L 11.25 -26.59375 Z M 1.75 -26.59375 "/></g></g></g><g fill="#000000" fill-opacity="1"><g transform="translate(124.833895, 40.439246)"><g/></g></g><g fill="#000000" fill-opacity="1"><g transform="translate(136.122939, 40.439246)"><g><path d="M 0.90625 0 L 11.8125 -29.9375 L 16.15625 -29.9375 L 27.140625 0 L 23.15625 0 L 16.828125 -17.8125 C 16.429688 -18.9375 15.972656 -20.304688 15.453125 -21.921875 C 14.941406 -23.535156 14.316406 -25.609375 13.578125 -28.140625 L 14.359375 -28.140625 C 13.628906 -25.597656 13 -23.503906 12.46875 -21.859375 C 11.9375 -20.222656 11.488281 -18.875 11.125 -17.8125 L 4.90625 0 Z M 6.421875 -8.359375 L 6.421875 -11.671875 L 21.640625 -11.671875 L 21.640625 -8.359375 Z M 6.421875 -8.359375 "/></g></g></g><g fill="#000000" fill-opacity="1"><g transform="translate(160.548545, 40.439246)"><g><path d="M 1.75 -26.59375 L 1.75 -29.9375 L 24.484375 -29.9375 L 24.484375 -26.59375 L 15.03125 -26.59375 L 15.03125 0 L 11.25 0 L 11.25 -26.59375 Z M 1.75 -26.59375 "/></g></g></g><g fill="#000000" fill-opacity="1"><g transform="translate(186.782516, 40.439246)"><g/></g></g><g fill="#000000" fill-opacity="1"><g transform="translate(198.07156, 40.439246)"><g><path d="M 3.46875 0 L 3.46875 -29.9375 L 7.25 -29.9375 L 7.25 -16.96875 L 23 -16.96875 L 23 -29.9375 L 26.78125 -29.9375 L 26.78125 0 L 23 0 L 23 -13.640625 L 7.25 -13.640625 L 7.25 0 Z M 3.46875 0 "/></g></g></g><g fill="#000000" fill-opacity="1"><g transform="translate(228.322997, 40.439246)"><g><path d="M 15.671875 0.421875 C 13.097656 0.421875 10.800781 -0.207031 8.78125 -1.46875 C 6.769531 -2.726562 5.1875 -4.507812 4.03125 -6.8125 C 2.882812 -9.113281 2.3125 -11.828125 2.3125 -14.953125 C 2.3125 -18.078125 2.882812 -20.789062 4.03125 -23.09375 C 5.1875 -25.40625 6.769531 -27.191406 8.78125 -28.453125 C 10.800781 -29.722656 13.097656 -30.359375 15.671875 -30.359375 C 18.253906 -30.359375 20.546875 -29.722656 22.546875 -28.453125 C 24.546875 -27.191406 26.117188 -25.40625 27.265625 -23.09375 C 28.421875 -20.789062 29 -18.078125 29 -14.953125 C 29 -11.828125 28.421875 -9.113281 27.265625 -6.8125 C 26.117188 -4.507812 24.546875 -2.726562 22.546875 -1.46875 C 20.546875 -0.207031 18.253906 0.421875 15.671875 0.421875 Z M 15.671875 -3.078125 C 17.460938 -3.078125 19.082031 -3.53125 20.53125 -4.4375 C 21.988281 -5.351562 23.148438 -6.691406 24.015625 -8.453125 C 24.878906 -10.222656 25.3125 -12.390625 25.3125 -14.953125 C 25.3125 -17.515625 24.878906 -19.679688 24.015625 -21.453125 C 23.148438 -23.234375 21.988281 -24.578125 20.53125 -25.484375 C 19.082031 -26.398438 17.460938 -26.859375 15.671875 -26.859375 C 13.878906 -26.859375 12.25 -26.398438 10.78125 -25.484375 C 9.320312 -24.566406 8.160156 -23.222656 7.296875 -21.453125 C 6.429688 -19.679688 6 -17.515625 6 -14.953125 C 6 -12.390625 6.429688 -10.226562 7.296875 -8.46875 C 8.160156 -6.707031 9.320312 -5.367188 10.78125 -4.453125 C 12.25 -3.535156 13.878906 -3.078125 15.671875 -3.078125 Z M 15.671875 -3.078125 "/></g></g></g><g fill="#000000" fill-opacity="1"><g transform="translate(259.639027, 40.439246)"><g><path d="M 3.46875 0 L 3.46875 -29.9375 L 8.78125 -29.9375 L 16.21875 -10.953125 C 16.382812 -10.503906 16.578125 -9.953125 16.796875 -9.296875 C 17.023438 -8.640625 17.265625 -7.9375 17.515625 -7.1875 C 17.773438 -6.4375 18.015625 -5.691406 18.234375 -4.953125 C 18.460938 -4.222656 18.660156 -3.554688 18.828125 -2.953125 L 17.984375 -2.953125 C 18.148438 -3.523438 18.347656 -4.171875 18.578125 -4.890625 C 18.804688 -5.617188 19.046875 -6.359375 19.296875 -7.109375 C 19.546875 -7.867188 19.785156 -8.585938 20.015625 -9.265625 C 20.253906 -9.941406 20.457031 -10.503906 20.625 -10.953125 L 27.9375 -29.9375 L 33.265625 -29.9375 L 33.265625 0 L 29.546875 0 L 29.546875 -17.15625 C 29.546875 -17.769531 29.546875 -18.46875 29.546875 -19.25 C 29.554688 -20.039062 29.570312 -20.851562 29.59375 -21.6875 C 29.613281 -22.53125 29.632812 -23.390625 29.65625 -24.265625 C 29.675781 -25.148438 29.691406 -26 29.703125 -26.8125 L 30.078125 -26.8125 C 29.796875 -25.894531 29.492188 -24.96875 29.171875 -24.03125 C 28.847656 -23.09375 28.535156 -22.1875 28.234375 -21.3125 C 27.941406 -20.445312 27.664062 -19.65625 27.40625 -18.9375 C 27.144531 -18.226562 26.921875 -17.632812 26.734375 -17.15625 L 19.984375 0 L 16.75 0 L 9.90625 -17.15625 C 9.71875 -17.625 9.5 -18.207031 9.25 -18.90625 C 9 -19.601562 8.722656 -20.378906 8.421875 -21.234375 C 8.117188 -22.085938 7.800781 -22.988281 7.46875 -23.9375 C 7.144531 -24.894531 6.816406 -25.851562 6.484375 -26.8125 L 6.90625 -26.8125 C 6.9375 -26.0625 6.960938 -25.257812 6.984375 -24.40625 C 7.003906 -23.5625 7.019531 -22.707031 7.03125 -21.84375 C 7.039062 -20.976562 7.050781 -20.144531 7.0625 -19.34375 C 7.082031 -18.539062 7.09375 -17.8125 7.09375 -17.15625 L 7.09375 0 Z M 3.46875 0 "/></g></g></g><g fill="#000000" fill-opacity="1"><g transform="translate(296.378658, 40.439246)"><g><path d="M 3.46875 0 L 3.46875 -29.9375 L 21.96875 -29.9375 L 21.96875 -26.59375 L 7.25 -26.59375 L 7.25 -16.828125 L 20.953125 -16.828125 L 20.953125 -13.484375 L 7.25 -13.484375 L 7.25 -3.328125 L 22.109375 -3.328125 L 22.109375 0 Z M 3.46875 0 "/></g></g></g><g fill="#000000" fill-opacity="1"><g transform="translate(320.90523, 40.439246)"><g/></g></g><g fill="#000000" fill-opacity="1"><g transform="translate(332.194262, 40.439246)"><g><path d="M 3.46875 0 L 3.46875 -29.9375 L 13.90625 -29.9375 C 16.175781 -29.9375 18.066406 -29.539062 19.578125 -28.75 C 21.097656 -27.96875 22.234375 -26.882812 22.984375 -25.5 C 23.734375 -24.113281 24.109375 -22.523438 24.109375 -20.734375 C 24.109375 -18.921875 23.722656 -17.332031 22.953125 -15.96875 C 22.191406 -14.601562 21.054688 -13.539062 19.546875 -12.78125 C 18.035156 -12.03125 16.140625 -11.65625 13.859375 -11.65625 L 5.578125 -11.65625 L 5.578125 -15 L 13.765625 -15 C 15.304688 -15 16.554688 -15.226562 17.515625 -15.6875 C 18.484375 -16.15625 19.195312 -16.816406 19.65625 -17.671875 C 20.113281 -18.535156 20.34375 -19.554688 20.34375 -20.734375 C 20.34375 -21.921875 20.113281 -22.953125 19.65625 -23.828125 C 19.195312 -24.710938 18.476562 -25.394531 17.5 -25.875 C 16.53125 -26.363281 15.269531 -26.609375 13.71875 -26.609375 L 7.25 -26.609375 L 7.25 0 Z M 20.703125 0 L 13.484375 -13.484375 L 17.734375 -13.484375 L 25.09375 0 Z M 20.703125 0 "/></g></g></g><g fill="#000000" fill-opacity="1"><g transform="translate(358.568863, 40.439246)"><g><path d="M 3.46875 0 L 3.46875 -29.9375 L 21.96875 -29.9375 L 21.96875 -26.59375 L 7.25 -26.59375 L 7.25 -16.828125 L 20.953125 -16.828125 L 20.953125 -13.484375 L 7.25 -13.484375 L 7.25 -3.328125 L 22.109375 -3.328125 L 22.109375 0 Z M 3.46875 0 "/></g></g></g><g fill="#000000" fill-opacity="1"><g transform="translate(383.09541, 40.439246)"><g><path d="M 0.90625 0 L 11.8125 -29.9375 L 16.15625 -29.9375 L 27.140625 0 L 23.15625 0 L 16.828125 -17.8125 C 16.429688 -18.9375 15.972656 -20.304688 15.453125 -21.921875 C 14.941406 -23.535156 14.316406 -25.609375 13.578125 -28.140625 L 14.359375 -28.140625 C 13.628906 -25.597656 13 -23.503906 12.46875 -21.859375 C 11.9375 -20.222656 11.488281 -18.875 11.125 -17.8125 L 4.90625 0 Z M 6.421875 -8.359375 L 6.421875 -11.671875 L 21.640625 -11.671875 L 21.640625 -8.359375 Z M 6.421875 -8.359375 "/></g></g></g><g fill="#000000" fill-opacity="1"><g transform="translate(411.137235, 40.439246)"><g><path d="M 3.46875 0 L 3.46875 -29.9375 L 7.25 -29.9375 L 7.25 -3.328125 L 21.234375 -3.328125 L 21.234375 0 Z M 3.46875 0 "/></g></g></g><g fill="#000000" fill-opacity="1"><g transform="translate(430.139241, 40.439246)"><g><path d="M 1.75 -26.59375 L 1.75 -29.9375 L 24.484375 -29.9375 L 24.484375 -26.59375 L 15.03125 -26.59375 L 15.03125 0 L 11.25 0 L 11.25 -26.59375 Z M 1.75 -26.59375 "/></g></g></g><g fill="#000000" fill-opacity="1"><g transform="translate(456.995987, 40.439246)"><g><path d="M 11.90625 0 L 11.90625 -12.28125 L 0.90625 -29.9375 L 5.265625 -29.9375 L 11.203125 -20.265625 C 11.859375 -19.210938 12.453125 -18.191406 12.984375 -17.203125 C 13.515625 -16.222656 14.054688 -15.039062 14.609375 -13.65625 L 13.078125 -13.65625 C 13.628906 -15.0625 14.164062 -16.257812 14.6875 -17.25 C 15.21875 -18.25 15.789062 -19.253906 16.40625 -20.265625 L 22.34375 -29.9375 L 26.703125 -29.9375 L 15.6875 -12.28125 L 15.6875 0 Z M 11.90625 0 "/></g></g></g></g></g></svg>